<?xml version="1.0" encoding="UTF-8" standalone="no"?><!DOCTYPE svg PUBLIC "-//W3C//DTD SVG 1.1//EN" "http://www.w3.org/Graphics/SVG/1.1/DTD/svg11.dtd"><svg width="100%" height="100%" viewBox="0 0 67 67" version="1.1" xmlns="http://www.w3.org/2000/svg" xmlns:xlink="http://www.w3.org/1999/xlink" xml:space="preserve" xmlns:serif="http://www.serif.com/" style="fill-rule:evenodd;clip-rule:evenodd;stroke-linejoin:round;stroke-miterlimit:2;"><path id="Icon_awesome-linkedin-2" d="M61.904,0l-57.158,0c-2.613,0.02 -4.751,2.179 -4.746,4.792l-0,57.083c-0.005,2.613 2.133,4.771 4.746,4.792l57.158,-0c2.617,-0.019 4.76,-2.175 4.763,-4.792l-0,-57.083c-0.003,-2.617 -2.146,-4.774 -4.763,-4.792Zm-41.754,57.142l-9.883,-0l-0,-31.813l9.895,0l0,31.817l-0.012,-0.004Zm-4.942,-36.159c-3.143,0 -5.729,-2.586 -5.729,-5.729c0,-3.143 2.586,-5.729 5.729,-5.729c3.143,-0 5.729,2.586 5.729,5.729c-0.002,3.142 -2.587,5.727 -5.729,5.729Zm41.979,36.163l-9.879,-0l0,-15.479c0,-3.692 -0.075,-8.438 -5.133,-8.438c-5.15,0 -5.938,4.017 -5.938,8.171l0,15.746l-9.883,-0l0,-31.817l9.479,0l0,4.342l0.134,-0c1.936,-3.296 5.538,-5.272 9.358,-5.133c10,-0 11.858,6.591 11.858,15.162l0.004,17.446Z" style="fill:#fff;fill-rule:nonzero;"/></svg>