<svg xmlns="http://www.w3.org/2000/svg" width="19.2" height="13.5" viewBox="0 0 19.2 13.5">
  <g id="Icon_awesome-youtube" data-name="Icon awesome-youtube" transform="translate(0)">
    <path id="Icon_awesome-youtube-2" data-name="Icon awesome-youtube" d="M19.849,6.612a2.412,2.412,0,0,0-1.7-1.708c-1.5-.4-7.5-.4-7.5-.4s-6,0-7.5.4a2.413,2.413,0,0,0-1.7,1.708,25.308,25.308,0,0,0-.4,4.651,25.308,25.308,0,0,0,.4,4.651,2.377,2.377,0,0,0,1.7,1.681c1.5.4,7.5.4,7.5.4s6,0,7.5-.4a2.377,2.377,0,0,0,1.7-1.681,25.308,25.308,0,0,0,.4-4.651,25.308,25.308,0,0,0-.4-4.651ZM8.686,14.118V8.409L13.7,11.264,8.686,14.118Z" transform="translate(-1.05 -4.5)" fill="#384e5f"/>
  </g>
</svg>
