<?xml version="1.0" encoding="UTF-8" standalone="no"?><!DOCTYPE svg PUBLIC "-//W3C//DTD SVG 1.1//EN" "http://www.w3.org/Graphics/SVG/1.1/DTD/svg11.dtd"><svg width="100%" height="100%" viewBox="0 0 80 57" version="1.1" xmlns="http://www.w3.org/2000/svg" xmlns:xlink="http://www.w3.org/1999/xlink" xml:space="preserve" xmlns:serif="http://www.serif.com/" style="fill-rule:evenodd;clip-rule:evenodd;stroke-linejoin:round;stroke-miterlimit:2;"><g id="Icon_awesome-youtube"><path id="Icon_awesome-youtube-2" d="M78.329,8.8c-0.921,-3.462 -3.626,-6.18 -7.083,-7.117c-6.25,-1.666 -31.25,-1.666 -31.25,-1.666c-0,-0 -25,-0 -31.25,1.666c-3.457,0.938 -6.162,3.655 -7.084,7.117c-1.151,6.395 -1.709,12.882 -1.666,19.379c-0.043,6.497 0.515,12.985 1.666,19.379c0.929,3.435 3.639,6.115 7.084,7.004c6.25,1.667 31.25,1.667 31.25,1.667c-0,0 25,0 31.25,-1.667c3.444,-0.889 6.155,-3.569 7.083,-7.004c1.152,-6.394 1.709,-12.882 1.667,-19.379c0.042,-6.497 -0.515,-12.984 -1.667,-19.379Zm-46.512,31.275l-0,-23.787l20.891,11.895l-20.891,11.892Z" style="fill:#fff;fill-rule:nonzero;"/></g></svg>