<?xml version="1.0" standalone="no"?>
<svg xmlns="http://www.w3.org/2000/svg" viewBox="0 0 191 75" width="191" height="75"><g fill="#e1a027" color="#e1a027" transform="translate(73.388 0) scale(0.9166667) "><svg width="48.0" height="48.0" x="0.0" y="0.0" viewBox="0 0 48 48"><path fill="currentColor" fill-rule="evenodd" d="M34.473 43.811c1.217-4.516 4.822-8.12 9.338-9.335a22.573 22.573 0 0 1-9.338 9.335M4.19 34.473c4.514 1.217 8.118 4.821 9.333 9.336a22.572 22.572 0 0 1-9.333-9.336M13.526 4.19c-1.217 4.513-4.82 8.117-9.335 9.333a22.567 22.567 0 0 1 9.335-9.333m30.286 9.337c-4.516-1.216-8.12-4.822-9.336-9.337a22.567 22.567 0 0 1 9.336 9.337m2.585 11.285c-.023.625-.07 1.243-.144 1.855-10.523.49-19.098 9.064-19.59 19.586-.61.073-1.227.121-1.851.144.419-11.716 9.87-21.166 21.585-21.585m-44.65 1.851c-.072-.61-.12-1.227-.143-1.85 11.716.42 21.164 9.868 21.584 21.584a22.362 22.362 0 0 1-1.855-.144c-.49-10.523-9.063-19.097-19.586-19.59m.623 3.211a22.09 22.09 0 0 1-.471-2.15c9.824.562 17.814 8.551 18.374 18.378-.73-.123-1.447-.28-2.15-.472A17.356 17.356 0 0 0 2.37 29.873m.328 1.095A16.3 16.3 0 0 1 17.027 45.3a22.307 22.307 0 0 1-2.283-.892C13.622 38.836 9.16 34.375 3.59 33.252a22.28 22.28 0 0 1-.892-2.284m-1.094-7.78c.023-.625.071-1.243.144-1.855 10.523-.49 19.097-9.065 19.59-19.587.61-.072 1.226-.12 1.85-.143-.42 11.715-9.869 21.164-21.584 21.585m39.492.811c-8.33 2.196-14.9 8.767-17.097 17.097-2.195-8.33-8.766-14.9-17.096-17.097 8.33-2.196 14.901-8.766 17.096-17.097 2.197 8.33 8.767 14.901 17.097 17.097m5.158-2.663c.073.61.12 1.228.143 1.852-11.716-.42-21.166-9.869-21.585-21.585.625.022 1.242.07 1.854.143.49 10.524 9.064 19.099 19.588 19.59m-.622-3.21c.191.704.348 1.42.471 2.15-9.826-.561-17.817-8.552-18.376-18.378.728.123 1.446.28 2.15.471.754 8.388 7.368 15 15.755 15.756m-.328-1.094A16.3 16.3 0 0 1 30.972 2.698c.78.257 1.542.555 2.283.892 1.12 5.574 5.583 10.035 11.156 11.157.338.741.636 1.503.893 2.284M2.37 18.122c8.386-.754 15-7.367 15.755-15.754.704-.191 1.42-.348 2.15-.47-.561 9.824-8.551 17.814-18.377 18.375.123-.73.28-1.447.472-2.15m1.22-3.38c5.573-1.12 10.034-5.582 11.156-11.153a22.38 22.38 0 0 1 2.284-.892A16.3 16.3 0 0 1 2.699 17.027c.257-.781.555-1.543.893-2.283M45.63 29.877A17.357 17.357 0 0 0 29.873 45.63c-.704.192-1.42.349-2.15.472.562-9.827 8.552-17.816 18.379-18.376-.123.73-.28 1.447-.472 2.15m-1.22 3.378c-5.573 1.122-10.036 5.584-11.158 11.156-.741.337-1.502.635-2.283.892a16.3 16.3 0 0 1 14.333-14.33c-.257.78-.555 1.541-.892 2.282M24 0h-.001C10.77.001.009 10.759.002 23.986L0 23.999l.002.014C.009 37.24 10.77 47.998 23.999 47.999h.002c13.233 0 23.999-10.766 23.999-24C48 10.766 37.234 0 24 0"></path></svg></g><path fill="#ffffff" fill-rule="nonzero" d="M6.30 10.01L6.30 10.01Q5.11 10.01 4.37 9.75Q3.63 9.49 3.38 9.09L3.38 9.09Q3.26 8.93 3.16 8.60Q3.07 8.27 3.23 7.88L3.23 7.88Q3.56 8.13 3.95 8.26Q4.34 8.39 4.66 8.44L4.66 8.44Q5.06 8.51 5.44 8.51L5.44 8.51Q6.14 8.51 6.81 8.39Q7.48 8.27 8.13 8.06L8.13 8.06Q8.41 6.66 8.68 5.53Q8.95 4.41 9.30 3.70L9.30 3.70Q9.68 2.93 10.09 2.31Q10.50 1.69 11.00 1.25Q11.51 0.82 12.12 0.59Q12.73 0.35 13.52 0.35L13.52 0.35Q14.11 0.35 14.45 0.59Q14.79 0.82 14.96 1.17Q15.14 1.52 15.18 1.93Q15.21 2.34 15.21 2.70L15.21 2.70Q15.21 3.47 14.84 4.38Q14.46 5.30 13.78 6.19Q13.10 7.08 12.15 7.88Q11.20 8.67 10.03 9.19L10.03 9.19Q9.63 10.73 9.25 12.25Q8.86 13.76 8.48 14.74L8.48 14.74Q8.16 15.66 7.65 16.78Q7.15 17.91 6.42 18.94L6.42 18.94Q6.87 19.22 7.32 19.52Q7.78 19.83 8.25 20.07Q8.72 20.32 9.20 20.48Q9.68 20.65 10.22 20.65L10.22 20.65Q10.78 20.63 11.32 20.48L11.32 20.48Q11.79 20.37 12.30 20.10Q12.82 19.83 13.27 19.34L13.27 19.34Q13.43 19.62 13.37 20.18Q13.31 20.74 13.01 21.30Q12.70 21.87 12.14 22.29Q11.58 22.71 10.73 22.71L10.73 22.71Q9.84 22.71 9.07 22.46Q8.30 22.22 7.62 21.87Q6.94 21.52 6.34 21.11Q5.74 20.70 5.23 20.34L5.23 20.34Q4.52 21.02 3.68 21.45Q2.84 21.87 1.80 21.87L1.80 21.87Q0.98 21.87 0.49 21.41Q0 20.95 0.05 20.18L0.05 20.18Q0.07 19.90 0.21 19.51Q0.35 19.13 0.74 18.77Q1.13 18.42 1.80 18.18Q2.48 17.93 3.56 17.93L3.56 17.93Q3.96 17.93 4.32 18.01Q4.69 18.09 5.04 18.21L5.04 18.21Q5.30 17.74 5.55 17.13Q5.81 16.52 6.12 15.75L6.12 15.75Q6.66 14.27 7.05 12.79Q7.45 11.30 7.73 9.89L7.73 9.89Q7.41 9.96 7.04 9.98Q6.68 10.01 6.30 10.01ZM2.41 20.60L2.41 20.60Q2.72 20.48 3.12 20.37Q3.52 20.25 4.03 19.71L4.03 19.71Q3.68 19.59 3.49 19.59L3.49 19.59Q2.65 19.59 2.26 19.84Q1.88 20.09 1.88 20.32L1.88 20.32Q1.88 20.48 2.02 20.57Q2.16 20.65 2.41 20.60ZM11.27 4.29L11.27 4.29Q11.16 4.64 10.97 5.32Q10.78 6 10.57 6.89L10.57 6.89Q11.84 6.07 12.60 5.02Q13.36 3.96 13.36 2.91L13.36 2.91Q13.36 2.27 12.98 2.27L12.98 2.27Q12.66 2.27 12.14 2.78Q11.63 3.28 11.27 4.29ZM24.87 13.10L24.87 13.10Q24.16 14.13 23.27 15.11Q22.38 16.08 21.39 16.84Q20.39 17.60 19.35 18.07Q18.30 18.54 17.32 18.54L17.32 18.54Q16.80 18.54 16.21 18.29Q15.61 18.05 15.12 17.53Q14.63 17.02 14.33 16.20Q14.04 15.38 14.16 14.20L14.16 14.20Q14.25 13.24 14.75 12.18Q15.26 11.11 16.00 10.22Q16.73 9.33 17.66 8.74Q18.59 8.16 19.52 8.16L19.52 8.16Q20.41 8.16 20.81 8.60Q21.21 9.05 21.16 9.70L21.16 9.70Q21.09 10.43 20.75 11.04Q20.41 11.65 19.95 12.14Q19.48 12.63 18.95 13.03Q18.42 13.43 17.95 13.76L17.95 13.76Q17.44 14.11 16.97 14.43Q16.50 14.74 16.15 15L16.15 15Q16.17 15.59 16.36 15.98Q16.55 16.38 16.83 16.63Q17.11 16.88 17.47 16.98Q17.84 17.09 18.21 17.09L18.21 17.09Q19.01 17.09 19.88 16.58Q20.74 16.08 21.57 15.36Q22.41 14.65 23.12 13.88Q23.84 13.10 24.30 12.54L24.30 12.54Q24.47 12.35 24.64 12.32Q24.82 12.28 24.93 12.36Q25.03 12.45 25.03 12.64Q25.03 12.84 24.87 13.10ZM18.87 9.49L18.87 9.49Q18.59 9.49 18.20 9.77Q17.81 10.05 17.44 10.58Q17.06 11.11 16.73 11.87Q16.41 12.63 16.24 13.62L16.24 13.62Q16.52 13.41 16.85 13.18Q17.18 12.96 17.51 12.70L17.51 12.70Q18.52 11.93 18.91 11.34Q19.31 10.76 19.36 10.34L19.36 10.34Q19.41 9.89 19.27 9.69Q19.13 9.49 18.87 9.49ZM42.45 15.77L42.45 15.77Q42.30 17.34 41.51 18.59Q40.71 19.83 39.48 20.68Q38.25 21.54 36.70 21.98Q35.16 22.43 33.52 22.43L33.52 22.43Q32.91 22.43 32.38 22.35Q31.85 22.27 31.43 22.15Q31.01 22.03 30.71 21.93Q30.42 21.82 30.30 21.75L30.30 21.75Q30.09 21.63 29.96 21.46Q29.84 21.28 29.81 20.95L29.81 20.95Q29.79 20.77 29.79 20.66Q29.79 20.55 29.81 20.44Q29.84 20.32 29.89 20.12Q29.95 19.92 30.05 19.57L30.05 19.57Q30.09 19.36 30.41 18.25Q30.73 17.13 31.17 15.53Q31.62 13.92 32.14 12.05Q32.67 10.17 33.16 8.41Q33.66 6.66 34.05 5.24Q34.45 3.82 34.64 3.14L34.64 3.14Q34.31 3.38 34.00 3.63Q33.68 3.89 33.35 4.20L33.35 4.20Q33 4.52 32.66 4.42Q32.32 4.31 32.18 3.84L32.18 3.84Q32.13 3.61 32.11 3.35L32.11 3.35Q32.09 3.14 32.12 2.87Q32.16 2.60 32.30 2.34L32.30 2.34Q33.07 1.88 33.81 1.55Q34.55 1.22 35.23 0.96L35.23 0.96Q35.37 0.56 35.54 0.35Q35.72 0.14 35.91 0.07Q36.09 0 36.30 0.02Q36.52 0.05 36.75 0.09L36.75 0.09Q37.27 0.21 37.43 0.42L37.43 0.42Q37.76 0.38 38.06 0.35Q38.37 0.33 38.70 0.33L38.70 0.33Q40.05 0.33 41.06 0.68Q42.07 1.03 42.71 1.63Q43.36 2.23 43.64 3.02Q43.92 3.82 43.85 4.71L43.85 4.71Q43.78 5.48 43.44 6.32Q43.10 7.15 42.54 7.96Q41.98 8.77 41.23 9.53Q40.48 10.29 39.56 10.92L39.56 10.92Q40.29 11.34 40.85 11.91Q41.41 12.47 41.79 13.13Q42.16 13.78 42.33 14.46Q42.49 15.14 42.45 15.77ZM34.69 10.03L34.69 10.03Q34.64 10.27 34.58 10.50Q34.52 10.73 34.45 10.99L34.45 10.99Q34.73 10.69 35.40 10.43Q36.07 10.17 36.68 10.17L36.68 10.17Q37.01 10.17 37.31 10.21Q37.62 10.24 37.90 10.29L37.90 10.29Q38.55 9.87 39.16 9.20Q39.77 8.53 40.23 7.77Q40.69 7.01 40.98 6.21Q41.27 5.41 41.34 4.73L41.34 4.73Q41.48 3.12 40.79 2.33Q40.10 1.55 38.84 1.55L38.84 1.55Q37.99 1.55 37.08 1.85L37.08 1.85Q36.89 2.46 36.61 3.36Q36.33 4.27 36.01 5.34Q35.70 6.42 35.34 7.62Q34.99 8.81 34.69 10.03ZM34.29 11.58L34.29 11.58Q33.96 12.84 33.63 14.32L33.63 14.32Q33.33 15.59 32.98 17.26Q32.63 18.94 32.23 20.84L32.23 20.84Q32.37 20.95 32.60 21Q32.84 21.05 33.07 21.09L33.07 21.09Q33.33 21.14 33.63 21.14L33.63 21.14Q34.69 21.14 35.78 20.71Q36.87 20.27 37.78 19.48Q38.70 18.68 39.32 17.54Q39.94 16.41 40.05 15L40.05 15Q40.10 14.37 39.97 13.86Q39.84 13.36 39.60 12.95Q39.35 12.54 39.04 12.22Q38.72 11.91 38.37 11.67L38.37 11.67Q37.29 12.26 36 12.66L36 12.66Q35.58 12.77 35.27 12.69Q34.97 12.61 34.76 12.43Q34.55 12.26 34.43 12.02Q34.31 11.79 34.29 11.58ZM49.64 4.17L49.64 4.17Q49.57 4.43 49.37 4.68Q49.17 4.92 48.93 5.07Q48.68 5.23 48.42 5.27Q48.16 5.32 48 5.18L48 5.18Q47.51 4.80 47.48 4.37Q47.46 3.94 47.70 3.55Q47.93 3.16 48.28 2.89Q48.63 2.63 48.89 2.58L48.89 2.58Q49.15 2.53 49.32 2.68Q49.50 2.84 49.59 3.08Q49.69 3.33 49.70 3.63Q49.71 3.94 49.64 4.17ZM46.41 9.16L46.41 9.16Q46.52 9.02 46.85 8.93Q47.18 8.84 47.53 8.78Q47.88 8.72 48.18 8.71Q48.47 8.70 48.52 8.72L48.52 8.72Q48.54 8.74 48.40 9.21Q48.26 9.68 48.05 10.31Q47.84 10.95 47.60 11.61Q47.37 12.28 47.25 12.70L47.25 12.70Q47.13 13.13 46.97 13.65Q46.80 14.18 46.68 14.68Q46.55 15.19 46.50 15.63Q46.45 16.08 46.57 16.31L46.57 16.31Q46.69 16.59 46.83 16.70Q46.97 16.80 47.13 16.80L47.13 16.80Q47.60 16.80 48.32 16.29Q49.03 15.77 49.77 15.06Q50.51 14.34 51.14 13.61Q51.77 12.87 52.08 12.42L52.08 12.42Q52.27 12.19 52.46 12.12Q52.66 12.05 52.79 12.14Q52.92 12.23 52.93 12.45Q52.95 12.66 52.78 12.94L52.78 12.94Q52.41 13.59 51.68 14.50Q50.95 15.40 50.13 16.23Q49.31 17.06 48.53 17.65Q47.74 18.23 47.25 18.26L47.25 18.26Q46.85 18.28 46.46 18.13Q46.08 17.98 45.76 17.71Q45.45 17.44 45.23 17.07Q45.02 16.71 45 16.31L45 16.31Q44.93 15.73 45 14.71Q45.07 13.69 45.26 12.62Q45.45 11.55 45.74 10.59Q46.03 9.63 46.41 9.16ZM54.38 17.18L54.38 17.18Q54.52 17.27 54.74 17.27Q54.96 17.27 55.18 17.18Q55.41 17.09 55.61 16.92Q55.80 16.76 55.90 16.50L55.90 16.50Q55.99 16.24 55.90 15.76Q55.80 15.28 55.61 14.73Q55.41 14.18 55.17 13.62Q54.94 13.05 54.77 12.59L54.77 12.59Q54.63 12.23 54.54 11.93L54.54 11.93Q54.45 11.67 54.36 11.43Q54.28 11.18 54.23 11.09L54.23 11.09Q54.12 11.27 53.82 11.70Q53.53 12.12 53.19 12.57Q52.85 13.03 52.55 13.42Q52.24 13.80 52.13 13.95L52.13 13.95Q51.94 14.16 51.76 14.19Q51.59 14.23 51.47 14.12Q51.35 14.02 51.34 13.82Q51.33 13.62 51.52 13.34L51.52 13.34Q51.66 13.15 51.94 12.74Q52.22 12.33 52.50 11.89Q52.78 11.46 53.02 11.12Q53.25 10.78 53.27 10.71L53.27 10.71Q53.32 10.52 53.14 10.22Q52.97 9.91 53.09 9.52L53.09 9.52Q53.18 9.19 53.51 8.75Q53.84 8.32 54.28 7.97Q54.73 7.62 55.20 7.44Q55.66 7.27 56.04 7.45L56.04 7.45Q56.34 7.64 56.53 7.86Q56.72 8.09 56.67 8.32L56.67 8.32Q56.63 8.44 56.53 8.63L56.53 8.63Q56.44 8.81 56.25 9.08Q56.06 9.35 55.71 9.77L55.71 9.77Q55.78 10.31 55.91 10.76Q56.04 11.20 56.16 11.53L56.16 11.53Q56.30 11.93 56.46 12.26L56.46 12.26Q56.67 12.68 56.91 13.13Q57.14 13.57 57.33 14.00Q57.52 14.44 57.63 14.81Q57.75 15.19 57.70 15.45L57.70 15.45Q57.63 15.84 57.29 16.41Q56.95 16.97 56.45 17.50Q55.95 18.02 55.30 18.40Q54.66 18.77 53.95 18.77L53.95 18.77Q53.46 18.77 53.00 18.47Q52.55 18.16 52.23 17.75Q51.91 17.34 51.76 16.95Q51.61 16.55 51.73 16.34L51.73 16.34Q51.87 16.05 51.98 15.89Q52.10 15.73 52.34 15.52L52.34 15.52Q52.43 15.45 52.57 15.35L52.57 15.35Q52.69 15.28 52.90 15.21Q53.11 15.14 53.39 15.05L53.39 15.05Q53.63 15.77 53.81 16.18Q54 16.59 54.12 16.83L54.12 16.83Q54.26 17.09 54.38 17.18ZM68.16 12.05L68.16 12.05Q68.25 11.91 68.40 11.87Q68.55 11.84 68.65 11.91Q68.74 11.98 68.75 12.14Q68.77 12.30 68.63 12.59L68.63 12.59Q68.16 13.48 67.39 14.51Q66.63 15.54 65.79 16.44Q64.95 17.34 64.15 17.93Q63.35 18.52 62.81 18.52L62.81 18.52Q62.04 18.52 61.52 18.21Q61.01 17.91 60.71 17.46Q60.42 17.02 60.30 16.49Q60.19 15.96 60.23 15.52L60.23 15.52Q60.26 15.14 60.40 14.17Q60.54 13.20 60.77 11.92Q61.01 10.64 61.30 9.18Q61.59 7.71 61.92 6.35L61.92 6.35Q61.52 6.40 61.13 6.45Q60.73 6.49 60.40 6.49L60.40 6.49Q59.65 6.49 58.98 6.32Q58.31 6.14 57.98 5.98L57.98 5.98Q57.80 5.88 57.82 5.71Q57.84 5.53 57.96 5.36Q58.08 5.18 58.25 5.05Q58.43 4.92 58.57 4.92L58.57 4.92Q59.02 4.97 59.53 5.00Q60.05 5.04 60.66 5.02L60.66 5.02Q61.10 4.99 61.51 4.95Q61.92 4.90 62.32 4.83L62.32 4.83Q62.63 3.70 62.92 2.87Q63.21 2.04 63.45 1.71L63.45 1.71Q63.52 1.59 63.76 1.51Q64.01 1.43 64.29 1.39Q64.57 1.36 64.83 1.39Q65.09 1.43 65.20 1.57L65.20 1.57Q65.32 1.76 65.30 2.53Q65.27 3.30 65.04 4.50L65.04 4.50Q66.02 4.50 66.79 4.61Q67.55 4.71 68.09 4.84Q68.63 4.97 68.95 5.10Q69.28 5.23 69.45 5.27L69.45 5.27Q69.61 5.32 69.62 5.51Q69.63 5.70 69.55 5.89Q69.47 6.09 69.28 6.23Q69.09 6.38 68.86 6.33L68.86 6.33Q68.63 6.30 68.33 6.23Q68.04 6.16 67.63 6.12Q67.22 6.07 66.66 6.02Q66.09 5.98 65.34 5.98L65.34 5.98Q65.20 5.98 65.03 5.99Q64.85 6 64.66 6L64.66 6Q64.57 6.38 64.49 6.74Q64.41 7.10 64.27 7.50L64.27 7.50Q63.96 8.44 63.56 9.54L63.56 9.54Q63.21 10.50 62.72 11.74Q62.23 12.98 61.62 14.39L61.62 14.39Q61.48 15.40 61.65 15.93Q61.83 16.45 62.09 16.69L62.09 16.69Q62.39 16.95 62.84 16.97L62.84 16.97Q63.19 17.02 63.69 16.72Q64.20 16.43 64.73 15.94Q65.27 15.45 65.82 14.86Q66.38 14.27 66.84 13.71Q67.31 13.15 67.66 12.69Q68.02 12.23 68.16 12.05ZM65.86 17.86L65.86 17.86Q65.70 18.12 65.50 18.20Q65.30 18.28 65.14 18.22Q64.99 18.16 64.95 17.98Q64.90 17.79 65.04 17.51L65.04 17.51Q65.11 17.37 65.36 16.88Q65.60 16.38 65.94 15.69Q66.28 15 66.68 14.19Q67.08 13.38 67.44 12.66Q67.80 11.93 68.11 11.36Q68.41 10.78 68.55 10.52L68.55 10.52Q68.30 10.29 68.20 10.18Q68.11 10.08 68.06 9.73L68.06 9.73Q68.02 9.42 68.20 8.93Q68.39 8.44 68.70 7.98Q69 7.52 69.38 7.20Q69.75 6.87 70.10 6.87L70.10 6.87Q70.76 6.87 71.03 7.29Q71.30 7.71 71.34 8.16L71.34 8.16Q71.39 8.46 71.30 8.93Q71.20 9.40 70.95 9.77L70.95 9.77Q71.02 9.82 71.13 9.88Q71.25 9.94 71.51 9.94L71.51 9.94Q71.88 9.94 72.04 9.89Q72.19 9.84 72.52 9.84L72.52 9.84Q72.91 9.84 73.17 10.04Q73.43 10.24 73.59 10.54Q73.76 10.83 73.84 11.17Q73.92 11.51 73.95 11.79L73.95 11.79Q74.02 12.38 73.64 13.01Q73.27 13.64 72.73 14.39L72.73 14.39Q72.40 14.86 72.07 15.45Q71.74 16.03 71.79 16.50L71.79 16.50Q71.84 16.80 71.95 16.99Q72.07 17.18 72.61 17.18L72.61 17.18Q73.01 17.18 73.49 16.89Q73.97 16.59 74.47 16.14Q74.98 15.68 75.47 15.13Q75.96 14.58 76.38 14.05Q76.80 13.52 77.10 13.10Q77.39 12.68 77.53 12.49L77.53 12.49Q77.65 12.30 77.84 12.23Q78.02 12.16 78.16 12.23Q78.30 12.30 78.34 12.52Q78.38 12.73 78.16 13.08L78.16 13.08Q78.02 13.31 77.68 13.83Q77.34 14.34 76.86 14.98Q76.38 15.61 75.80 16.28Q75.21 16.95 74.57 17.50Q73.92 18.05 73.28 18.40Q72.63 18.75 72.05 18.75L72.05 18.75Q71.44 18.75 71.04 18.52Q70.64 18.28 70.39 17.94Q70.15 17.60 70.04 17.19Q69.94 16.78 69.96 16.43L69.96 16.43Q69.98 16.15 70.11 15.83Q70.24 15.52 70.42 15.18Q70.59 14.84 70.79 14.50Q70.99 14.16 71.16 13.83L71.16 13.83Q71.55 13.15 71.80 12.67Q72.05 12.19 72.05 11.86L72.05 11.86Q72.05 11.65 71.95 11.48Q71.86 11.32 71.65 11.32L71.65 11.32Q71.51 11.32 71.45 11.33Q71.39 11.34 71.33 11.34Q71.27 11.34 71.17 11.36Q71.06 11.37 70.85 11.37L70.85 11.37Q70.55 11.37 70.34 11.27Q70.13 11.18 69.94 11.13L69.94 11.13Q69.84 11.30 69.52 11.84Q69.19 12.38 68.75 13.10Q68.32 13.83 67.84 14.63Q67.36 15.42 66.94 16.11Q66.52 16.80 66.22 17.29Q65.93 17.77 65.86 17.86ZM83.44 14.25L83.44 14.25Q83.20 15.14 82.80 15.91Q82.41 16.69 81.86 17.25Q81.30 17.81 80.61 18.13Q79.92 18.45 79.10 18.45L79.10 18.45Q78.14 18.45 77.59 18.04Q77.04 17.63 76.77 17.02Q76.50 16.41 76.44 15.68Q76.38 14.95 76.38 14.32L76.38 14.32Q76.38 13.88 76.49 13.34Q76.59 12.80 76.78 12.23Q76.97 11.67 77.26 11.11Q77.55 10.55 77.95 10.08L77.95 10.08Q78.09 9.68 78.39 9.38Q78.68 9.07 79.07 8.87Q79.45 8.67 79.90 8.57Q80.34 8.46 80.77 8.46L80.77 8.46Q80.84 8.46 80.89 8.48Q80.95 8.51 81.02 8.53L81.02 8.53Q81.33 8.55 81.79 8.77Q82.24 8.98 82.68 9.40Q83.11 9.82 83.41 10.46Q83.72 11.11 83.72 12.02L83.72 12.02Q83.72 12.21 83.70 12.48Q83.67 12.75 83.65 12.94L83.65 12.94Q84.19 12.73 84.77 12.42Q85.36 12.12 85.91 11.78Q86.46 11.44 86.93 11.09Q87.40 10.73 87.68 10.45L87.68 10.45Q87.91 10.24 88.08 10.22Q88.24 10.20 88.31 10.31Q88.38 10.43 88.34 10.64Q88.29 10.85 88.08 11.11L88.08 11.11Q87.96 11.25 87.48 11.67Q87 12.09 86.34 12.59Q85.69 13.08 84.91 13.55Q84.14 14.02 83.44 14.25ZM79.48 10.69L79.48 10.69Q79.41 10.90 79.41 11.13L79.41 11.13Q79.41 11.51 79.45 11.92Q79.50 12.33 79.69 12.66Q79.88 12.98 80.29 13.21Q80.70 13.43 81.42 13.43L81.42 13.43Q81.54 13.43 81.66 13.42Q81.77 13.41 81.89 13.38L81.89 13.38Q81.96 13.08 82.02 12.83Q82.08 12.59 82.08 12.40L82.08 12.40Q82.13 11.95 82.08 11.48Q82.03 11.02 81.90 10.63Q81.77 10.24 81.57 10.00Q81.38 9.75 81.09 9.75L81.09 9.75Q80.65 9.75 80.24 10.00Q79.83 10.24 79.48 10.69ZM77.98 14.81L77.98 14.81Q77.98 15.23 78.02 15.64Q78.07 16.05 78.21 16.37Q78.35 16.69 78.59 16.89Q78.82 17.09 79.20 17.09L79.20 17.09Q79.62 17.09 79.97 16.89Q80.32 16.69 80.60 16.37Q80.88 16.05 81.11 15.64Q81.33 15.23 81.49 14.79L81.49 14.79Q81.33 14.81 81.18 14.82Q81.02 14.84 80.84 14.84L80.84 14.84Q79.95 14.84 79.30 14.31Q78.66 13.78 78.30 12.96L78.30 12.96Q78.16 13.45 78.07 13.92Q77.98 14.39 77.98 14.81ZM94.59 12.05L94.59 12.05Q94.69 11.91 94.84 11.87Q94.99 11.84 95.09 11.91Q95.18 11.98 95.19 12.14Q95.20 12.30 95.06 12.59L95.06 12.59Q94.59 13.48 93.83 14.51Q93.07 15.54 92.23 16.44Q91.38 17.34 90.59 17.93Q89.79 18.52 89.25 18.52L89.25 18.52Q88.48 18.52 87.96 18.21Q87.45 17.91 87.15 17.46Q86.86 17.02 86.74 16.49Q86.63 15.96 86.67 15.52L86.67 15.52Q86.70 15.14 86.84 14.17Q86.98 13.20 87.21 11.92Q87.45 10.64 87.74 9.18Q88.03 7.71 88.36 6.35L88.36 6.35Q87.96 6.40 87.56 6.45Q87.16 6.49 86.84 6.49L86.84 6.49Q86.09 6.49 85.42 6.32Q84.75 6.14 84.42 5.98L84.42 5.98Q84.23 5.88 84.26 5.71Q84.28 5.53 84.40 5.36Q84.52 5.18 84.69 5.05Q84.87 4.92 85.01 4.92L85.01 4.92Q85.45 4.97 85.97 5.00Q86.48 5.04 87.09 5.02L87.09 5.02Q87.54 4.99 87.95 4.95Q88.36 4.90 88.76 4.83L88.76 4.83Q89.06 3.70 89.36 2.87Q89.65 2.04 89.88 1.71L89.88 1.71Q89.95 1.59 90.20 1.51Q90.45 1.43 90.73 1.39Q91.01 1.36 91.27 1.39Q91.52 1.43 91.64 1.57L91.64 1.57Q91.76 1.76 91.73 2.53Q91.71 3.30 91.48 4.50L91.48 4.50Q92.46 4.50 93.22 4.61Q93.98 4.71 94.52 4.84Q95.06 4.97 95.39 5.10Q95.72 5.23 95.88 5.27L95.88 5.27Q96.05 5.32 96.06 5.51Q96.07 5.70 95.99 5.89Q95.91 6.09 95.72 6.23Q95.53 6.38 95.30 6.33L95.30 6.33Q95.06 6.30 94.77 6.23Q94.48 6.16 94.07 6.12Q93.66 6.07 93.09 6.02Q92.53 5.98 91.78 5.98L91.78 5.98Q91.64 5.98 91.46 5.99Q91.29 6 91.10 6L91.10 6Q91.01 6.38 90.93 6.74Q90.84 7.10 90.70 7.50L90.70 7.50Q90.40 8.44 90 9.54L90 9.54Q89.65 10.50 89.16 11.74Q88.66 12.98 88.05 14.39L88.05 14.39Q87.91 15.40 88.09 15.93Q88.27 16.45 88.52 16.69L88.52 16.69Q88.83 16.95 89.27 16.97L89.27 16.97Q89.63 17.02 90.13 16.72Q90.63 16.43 91.17 15.94Q91.71 15.45 92.26 14.86Q92.81 14.27 93.28 13.71Q93.75 13.15 94.10 12.69Q94.45 12.23 94.59 12.05ZM107.37 13.50L107.37 13.50Q107.25 14.23 107.14 14.88Q107.04 15.54 107.02 15.94L107.02 15.94Q106.99 16.52 107.23 16.78Q107.46 17.04 107.74 17.04L107.74 17.04Q108.07 17.04 108.55 16.71Q109.03 16.38 109.57 15.89Q110.11 15.40 110.65 14.81Q111.19 14.23 111.64 13.70Q112.10 13.17 112.42 12.77Q112.73 12.38 112.85 12.26L112.85 12.26Q112.99 12.12 113.14 12.09Q113.30 12.07 113.39 12.14Q113.48 12.21 113.48 12.40Q113.48 12.59 113.30 12.87L113.30 12.87Q113.02 13.31 112.57 13.91Q112.13 14.51 111.59 15.14Q111.05 15.77 110.45 16.38Q109.85 16.99 109.25 17.46Q108.66 17.93 108.11 18.22Q107.55 18.52 107.11 18.52L107.11 18.52Q106.78 18.52 106.49 18.33Q106.20 18.14 105.96 17.84Q105.73 17.53 105.60 17.16Q105.47 16.78 105.49 16.41L105.49 16.41Q105.52 16.24 105.56 15.84L105.56 15.84Q104.58 16.95 103.58 17.59Q102.59 18.23 101.67 18.23L101.67 18.23Q101.34 18.23 100.97 18.07Q100.59 17.91 100.30 17.53Q100.01 17.16 99.82 16.55Q99.63 15.94 99.68 15.07L99.68 15.07Q99.75 13.71 100.22 12.49Q100.69 11.27 101.40 10.37Q102.12 9.47 103.02 8.94Q103.92 8.41 104.84 8.41L104.84 8.41Q105.23 8.41 105.56 8.61Q105.89 8.81 106.13 9.13Q106.36 9.45 106.51 9.82Q106.66 10.20 106.73 10.52L106.73 10.52Q106.90 9.84 107.04 9.19Q107.18 8.53 107.32 7.95L107.32 7.95Q107.55 7.08 107.81 6.07L107.81 6.07Q108.05 5.20 108.35 4.08Q108.66 2.95 109.03 1.71L109.03 1.71Q109.27 1.52 109.48 1.43Q109.69 1.34 109.88 1.29L109.88 1.29Q110.09 1.22 110.27 1.22L110.27 1.22Q110.51 1.22 110.70 1.28Q110.88 1.34 111.01 1.58Q111.14 1.83 111.19 2.32Q111.23 2.81 111.19 3.66L111.19 3.66Q111.14 4.69 110.82 5.91Q110.51 7.13 109.99 8.43Q109.48 9.73 108.81 11.03Q108.14 12.33 107.37 13.50ZM105.98 13.80L105.98 13.80Q106.08 13.36 106.16 12.91Q106.24 12.47 106.36 12L106.36 12Q106.31 12.02 106.28 12.05Q106.24 12.07 106.20 12.09L106.20 12.09Q105.94 12.21 105.84 12.08Q105.75 11.95 105.75 11.67L105.75 11.67Q105.75 11.53 105.73 11.17Q105.70 10.80 105.60 10.42Q105.49 10.03 105.28 9.74Q105.07 9.45 104.70 9.45L104.70 9.45Q104.16 9.45 103.59 10.00Q103.03 10.55 102.54 11.33Q102.05 12.12 101.72 13.01Q101.39 13.90 101.34 14.60L101.34 14.60Q101.30 15.73 101.63 16.22Q101.95 16.71 102.52 16.71L102.52 16.71Q102.94 16.71 103.44 16.38Q103.95 16.05 104.43 15.59Q104.91 15.12 105.32 14.63Q105.73 14.13 105.98 13.80ZM114.42 18.35L114.42 18.35Q113.53 18.35 112.97 18.07Q112.41 17.79 112.09 17.38Q111.77 16.97 111.64 16.49Q111.52 16.01 111.52 15.61L111.52 15.61Q111.52 14.91 111.63 14.12Q111.75 13.34 111.91 12.67Q112.08 12 112.21 11.53Q112.34 11.06 112.38 10.95L112.38 10.95Q112.59 10.27 112.93 9.76Q113.27 9.26 113.88 9.07L113.88 9.07Q114.12 9.02 114.38 8.98L114.38 8.98Q114.59 8.95 114.81 8.95Q115.03 8.95 115.22 9.02L115.22 9.02Q114.59 10.64 114.22 11.72Q113.86 12.80 113.67 13.48L113.67 13.48Q113.46 14.25 113.41 14.72L113.41 14.72Q113.30 15.77 113.60 16.31Q113.91 16.85 114.84 16.85L114.84 16.85Q115.45 16.85 116.02 16.39Q116.58 15.94 117.05 15.21L117.05 15.21Q116.98 14.84 116.98 14.44L116.98 14.44Q116.98 13.69 117.11 12.97Q117.23 12.26 117.41 11.64Q117.59 11.02 117.79 10.52Q117.98 10.03 118.13 9.75L118.13 9.75Q118.38 9.19 118.59 9.06Q118.80 8.93 119.27 8.91L119.27 8.91Q119.46 8.88 119.59 8.89Q119.72 8.91 119.81 8.93L119.81 8.93Q120.09 9 120.09 9.21L120.09 9.21Q120.09 9.59 120.05 10.34Q120 11.09 119.77 11.88L119.77 11.88Q119.60 12.54 119.45 13.00Q119.30 13.45 119.16 13.77Q119.02 14.09 118.88 14.29Q118.73 14.48 118.62 14.65L118.62 14.65Q118.66 15.35 118.73 15.77Q118.80 16.20 118.91 16.42Q119.02 16.64 119.17 16.72Q119.32 16.80 119.51 16.80L119.51 16.80Q119.84 16.80 120.28 16.49Q120.73 16.17 121.21 15.69Q121.69 15.21 122.17 14.64Q122.65 14.06 123.05 13.55Q123.45 13.03 123.73 12.64Q124.01 12.26 124.08 12.16L124.08 12.16Q124.24 11.95 124.39 11.91Q124.55 11.86 124.64 11.94Q124.73 12.02 124.75 12.20Q124.76 12.38 124.64 12.59L124.64 12.59Q124.17 13.48 123.48 14.47Q122.79 15.47 122.00 16.31Q121.22 17.16 120.42 17.72Q119.63 18.28 118.92 18.28L118.92 18.28Q118.29 18.28 117.93 17.85Q117.56 17.41 117.30 16.59L117.30 16.59Q116.77 17.44 116.04 17.89Q115.31 18.35 114.42 18.35ZM129.59 21L129.59 21Q129.38 20.86 129.36 20.70Q129.35 20.53 129.45 20.37L129.45 20.37Q129.54 20.18 129.73 19.99L129.73 19.99Q129.91 19.83 130.17 19.16Q130.43 18.49 130.72 17.54Q131.02 16.59 131.31 15.47Q131.60 14.34 131.86 13.27Q132.12 12.19 132.30 11.27Q132.49 10.36 132.59 9.82L132.59 9.82Q132.70 9.16 132.84 8.39L132.84 8.39Q132.96 7.71 133.10 6.81Q133.24 5.91 133.36 4.80L133.36 4.80L135.23 3.96Q135.63 3.77 135.80 4.04Q135.96 4.31 135.80 5.16L135.80 5.16Q135.73 5.58 135.54 6.53Q135.35 7.48 135.11 8.61Q134.86 9.75 134.59 10.93Q134.32 12.12 134.06 13.03L134.06 13.03Q133.83 13.90 133.52 15.02L133.52 15.02Q132.98 16.95 132.02 20.27L132.02 20.27Q132.35 20.84 133.24 20.84L133.24 20.84Q134.23 20.84 135.53 20.09Q136.83 19.34 138.05 17.84Q139.27 16.34 140.19 14.07Q141.12 11.81 141.35 8.79L141.35 8.79Q141.47 7.15 141.19 5.91Q140.91 4.66 140.33 3.82Q139.76 2.98 138.93 2.55Q138.09 2.13 137.09 2.13L137.09 2.13Q134.72 2.13 132.19 4.10L132.19 4.10L132.07 2.16Q132.68 1.48 133.46 1.11Q134.25 0.75 134.93 0.56L134.93 0.56Q135.73 0.35 136.55 0.33L136.55 0.33Q138.05 0.33 139.44 0.90Q140.84 1.48 141.86 2.65Q142.88 3.82 143.41 5.59Q143.95 7.36 143.79 9.73L143.79 9.73Q143.70 11.09 143.24 12.55Q142.78 14.02 142.04 15.42Q141.30 16.83 140.30 18.09Q139.29 19.36 138.09 20.31Q136.90 21.26 135.54 21.81Q134.18 22.36 132.73 22.36L132.73 22.36Q132.28 22.34 131.77 22.20L131.77 22.20Q131.32 22.08 130.76 21.80Q130.20 21.52 129.59 21ZM143.79 17.86L143.79 17.86Q143.63 18.12 143.43 18.20Q143.23 18.28 143.07 18.22Q142.92 18.16 142.88 17.98Q142.83 17.79 142.97 17.51L142.97 17.51Q143.04 17.37 143.29 16.88Q143.53 16.38 143.87 15.69Q144.21 15 144.61 14.19Q145.01 13.38 145.37 12.66Q145.73 11.93 146.04 11.36Q146.34 10.78 146.48 10.52L146.48 10.52Q146.23 10.29 146.13 10.18Q146.04 10.08 145.99 9.73L145.99 9.73Q145.95 9.42 146.13 8.93Q146.32 8.44 146.63 7.98Q146.93 7.52 147.30 7.20Q147.68 6.87 148.03 6.87L148.03 6.87Q148.69 6.87 148.96 7.29Q149.23 7.71 149.27 8.16L149.27 8.16Q149.32 8.46 149.23 8.93Q149.13 9.40 148.88 9.77L148.88 9.77Q148.95 9.82 149.06 9.88Q149.18 9.94 149.44 9.94L149.44 9.94Q149.81 9.94 149.96 9.89Q150.12 9.84 150.45 9.84L150.45 9.84Q150.84 9.84 151.10 10.04Q151.36 10.24 151.52 10.54Q151.69 10.83 151.77 11.17Q151.85 11.51 151.88 11.79L151.88 11.79Q151.95 12.38 151.57 13.01Q151.20 13.64 150.66 14.39L150.66 14.39Q150.33 14.86 150 15.45Q149.67 16.03 149.72 16.50L149.72 16.50Q149.77 16.80 149.88 16.99Q150 17.18 150.54 17.18L150.54 17.18Q150.94 17.18 151.42 16.89Q151.90 16.59 152.40 16.14Q152.91 15.68 153.40 15.13Q153.89 14.58 154.31 14.05Q154.73 13.52 155.03 13.10Q155.32 12.68 155.46 12.49L155.46 12.49Q155.58 12.30 155.77 12.23Q155.95 12.16 156.09 12.23Q156.23 12.30 156.27 12.52Q156.30 12.73 156.09 13.08L156.09 13.08Q155.95 13.31 155.61 13.83Q155.27 14.34 154.79 14.98Q154.31 15.61 153.73 16.28Q153.14 16.95 152.50 17.50Q151.85 18.05 151.21 18.40Q150.56 18.75 149.98 18.75L149.98 18.75Q149.37 18.75 148.97 18.52Q148.57 18.28 148.32 17.94Q148.08 17.60 147.97 17.19Q147.87 16.78 147.89 16.43L147.89 16.43Q147.91 16.15 148.04 15.83Q148.17 15.52 148.35 15.18Q148.52 14.84 148.72 14.50Q148.92 14.16 149.09 13.83L149.09 13.83Q149.48 13.15 149.73 12.67Q149.98 12.19 149.98 11.86L149.98 11.86Q149.98 11.65 149.88 11.48Q149.79 11.32 149.58 11.32L149.58 11.32Q149.44 11.32 149.38 11.33Q149.32 11.34 149.26 11.34Q149.20 11.34 149.10 11.36Q148.99 11.37 148.78 11.37L148.78 11.37Q148.48 11.37 148.27 11.27Q148.05 11.18 147.87 11.13L147.87 11.13Q147.77 11.30 147.45 11.84Q147.12 12.38 146.68 13.10Q146.25 13.83 145.77 14.63Q145.29 15.42 144.87 16.11Q144.45 16.80 144.15 17.29Q143.86 17.77 143.79 17.86ZM159.59 4.17L159.59 4.17Q159.52 4.43 159.32 4.68Q159.12 4.92 158.87 5.07Q158.63 5.23 158.37 5.27Q158.11 5.32 157.95 5.18L157.95 5.18Q157.45 4.80 157.43 4.37Q157.41 3.94 157.64 3.55Q157.88 3.16 158.23 2.89Q158.58 2.63 158.84 2.58L158.84 2.58Q159.09 2.53 159.27 2.68Q159.45 2.84 159.54 3.08Q159.63 3.33 159.64 3.63Q159.66 3.94 159.59 4.17ZM156.35 9.16L156.35 9.16Q156.47 9.02 156.80 8.93Q157.13 8.84 157.48 8.78Q157.83 8.72 158.12 8.71Q158.41 8.70 158.46 8.72L158.46 8.72Q158.48 8.74 158.34 9.21Q158.20 9.68 157.99 10.31Q157.78 10.95 157.55 11.61Q157.31 12.28 157.20 12.70L157.20 12.70Q157.08 13.13 156.91 13.65Q156.75 14.18 156.62 14.68Q156.49 15.19 156.45 15.63Q156.40 16.08 156.52 16.31L156.52 16.31Q156.63 16.59 156.77 16.70Q156.91 16.80 157.08 16.80L157.08 16.80Q157.55 16.80 158.26 16.29Q158.98 15.77 159.71 15.06Q160.45 14.34 161.09 13.61Q161.72 12.87 162.02 12.42L162.02 12.42Q162.21 12.19 162.41 12.12Q162.61 12.05 162.74 12.14Q162.87 12.23 162.88 12.45Q162.89 12.66 162.73 12.94L162.73 12.94Q162.35 13.59 161.63 14.50Q160.90 15.40 160.08 16.23Q159.26 17.06 158.47 17.65Q157.69 18.23 157.20 18.26L157.20 18.26Q156.80 18.28 156.41 18.13Q156.02 17.98 155.71 17.71Q155.39 17.44 155.18 17.07Q154.97 16.71 154.95 16.31L154.95 16.31Q154.88 15.73 154.95 14.71Q155.02 13.69 155.20 12.62Q155.39 11.55 155.68 10.59Q155.98 9.63 156.35 9.16ZM168.47 13.50L168.47 13.50Q168.35 14.23 168.25 14.88Q168.14 15.54 168.12 15.94L168.12 15.94Q168.09 16.52 168.33 16.78Q168.56 17.04 168.84 17.04L168.84 17.04Q169.17 17.04 169.65 16.71Q170.13 16.38 170.67 15.89Q171.21 15.40 171.75 14.81Q172.29 14.23 172.75 13.70Q173.20 13.17 173.52 12.77Q173.84 12.38 173.95 12.26L173.95 12.26Q174.09 12.12 174.25 12.09Q174.40 12.07 174.49 12.14Q174.59 12.21 174.59 12.40Q174.59 12.59 174.40 12.87L174.40 12.87Q174.12 13.31 173.67 13.91Q173.23 14.51 172.69 15.14Q172.15 15.77 171.55 16.38Q170.95 16.99 170.36 17.46Q169.76 17.93 169.21 18.22Q168.66 18.52 168.21 18.52L168.21 18.52Q167.88 18.52 167.59 18.33Q167.30 18.14 167.06 17.84Q166.83 17.53 166.70 17.16Q166.57 16.78 166.59 16.41L166.59 16.41Q166.62 16.24 166.66 15.84L166.66 15.84Q165.68 16.95 164.68 17.59Q163.69 18.23 162.77 18.23L162.77 18.23Q162.45 18.23 162.07 18.07Q161.70 17.91 161.40 17.53Q161.11 17.16 160.92 16.55Q160.73 15.94 160.78 15.07L160.78 15.07Q160.85 13.71 161.32 12.49Q161.79 11.27 162.50 10.37Q163.22 9.47 164.12 8.94Q165.02 8.41 165.94 8.41L165.94 8.41Q166.34 8.41 166.66 8.61Q166.99 8.81 167.23 9.13Q167.46 9.45 167.61 9.82Q167.77 10.20 167.84 10.52L167.84 10.52Q168 9.84 168.14 9.19Q168.28 8.53 168.42 7.95L168.42 7.95Q168.66 7.08 168.91 6.07L168.91 6.07Q169.15 5.20 169.45 4.08Q169.76 2.95 170.13 1.71L170.13 1.71Q170.37 1.52 170.58 1.43Q170.79 1.34 170.98 1.29L170.98 1.29Q171.19 1.22 171.38 1.22L171.38 1.22Q171.61 1.22 171.80 1.28Q171.98 1.34 172.11 1.58Q172.24 1.83 172.29 2.32Q172.34 2.81 172.29 3.66L172.29 3.66Q172.24 4.69 171.93 5.91Q171.61 7.13 171.09 8.43Q170.58 9.73 169.91 11.03Q169.24 12.33 168.47 13.50ZM167.09 13.80L167.09 13.80Q167.18 13.36 167.26 12.91Q167.34 12.47 167.46 12L167.46 12Q167.41 12.02 167.38 12.05Q167.34 12.07 167.30 12.09L167.30 12.09Q167.04 12.21 166.95 12.08Q166.85 11.95 166.85 11.67L166.85 11.67Q166.85 11.53 166.83 11.17Q166.80 10.80 166.70 10.42Q166.59 10.03 166.38 9.74Q166.17 9.45 165.80 9.45L165.80 9.45Q165.26 9.45 164.70 10.00Q164.13 10.55 163.64 11.33Q163.15 12.12 162.82 13.01Q162.49 13.90 162.45 14.60L162.45 14.60Q162.40 15.73 162.73 16.22Q163.05 16.71 163.62 16.71L163.62 16.71Q164.04 16.71 164.54 16.38Q165.05 16.05 165.53 15.59Q166.01 15.12 166.42 14.63Q166.83 14.13 167.09 13.80ZM171.73 17.86L171.73 17.86Q171.56 18.12 171.36 18.20Q171.16 18.28 171.01 18.22Q170.86 18.16 170.81 17.98Q170.77 17.79 170.91 17.51L170.91 17.51Q170.98 17.37 171.22 16.88Q171.47 16.38 171.81 15.69Q172.15 15 172.55 14.19Q172.95 13.38 173.31 12.66Q173.67 11.93 173.98 11.36Q174.28 10.78 174.42 10.52L174.42 10.52Q174.16 10.29 174.07 10.18Q173.98 10.08 173.93 9.73L173.93 9.73Q173.88 9.42 174.07 8.93Q174.26 8.44 174.56 7.98Q174.87 7.52 175.24 7.20Q175.62 6.87 175.97 6.87L175.97 6.87Q176.63 6.87 176.89 7.29Q177.16 7.71 177.21 8.16L177.21 8.16Q177.26 8.46 177.16 8.93Q177.07 9.40 176.81 9.77L176.81 9.77Q176.88 9.82 177 9.88Q177.12 9.94 177.38 9.94L177.38 9.94Q177.75 9.94 177.90 9.89Q178.05 9.84 178.38 9.84L178.38 9.84Q178.78 9.84 179.04 10.04Q179.30 10.24 179.46 10.54Q179.63 10.83 179.71 11.17Q179.79 11.51 179.81 11.79L179.81 11.79Q179.88 12.38 179.51 13.01Q179.13 13.64 178.59 14.39L178.59 14.39Q178.27 14.86 177.94 15.45Q177.61 16.03 177.66 16.50L177.66 16.50Q177.70 16.80 177.82 16.99Q177.94 17.18 178.48 17.18L178.48 17.18Q178.88 17.18 179.36 16.89Q179.84 16.59 180.34 16.14Q180.84 15.68 181.34 15.13Q181.83 14.58 182.25 14.05Q182.67 13.52 182.96 13.10Q183.26 12.68 183.40 12.49L183.40 12.49Q183.52 12.30 183.70 12.23Q183.89 12.16 184.03 12.23Q184.17 12.30 184.21 12.52Q184.24 12.73 184.03 13.08L184.03 13.08Q183.89 13.31 183.55 13.83Q183.21 14.34 182.73 14.98Q182.25 15.61 181.66 16.28Q181.08 16.95 180.43 17.50Q179.79 18.05 179.14 18.40Q178.50 18.75 177.91 18.75L177.91 18.75Q177.30 18.75 176.91 18.52Q176.51 18.28 176.26 17.94Q176.02 17.60 175.91 17.19Q175.80 16.78 175.83 16.43L175.83 16.43Q175.85 16.15 175.98 15.83Q176.11 15.52 176.29 15.18Q176.46 14.84 176.66 14.50Q176.86 14.16 177.02 13.83L177.02 13.83Q177.42 13.15 177.67 12.67Q177.91 12.19 177.91 11.86L177.91 11.86Q177.91 11.65 177.82 11.48Q177.73 11.32 177.52 11.32L177.52 11.32Q177.38 11.32 177.32 11.33Q177.26 11.34 177.20 11.34Q177.14 11.34 177.04 11.36Q176.93 11.37 176.72 11.37L176.72 11.37Q176.41 11.37 176.20 11.27Q175.99 11.18 175.80 11.13L175.80 11.13Q175.71 11.30 175.38 11.84Q175.05 12.38 174.62 13.10Q174.19 13.83 173.71 14.63Q173.23 15.42 172.80 16.11Q172.38 16.80 172.09 17.29Q171.80 17.77 171.73 17.86ZM187.52 4.17L187.52 4.17Q187.45 4.43 187.25 4.68Q187.05 4.92 186.81 5.07Q186.56 5.23 186.30 5.27Q186.05 5.32 185.88 5.18L185.88 5.18Q185.39 4.80 185.37 4.37Q185.34 3.94 185.58 3.55Q185.81 3.16 186.16 2.89Q186.52 2.63 186.77 2.58L186.77 2.58Q187.03 2.53 187.21 2.68Q187.38 2.84 187.48 3.08Q187.57 3.33 187.58 3.63Q187.59 3.94 187.52 4.17ZM184.29 9.16L184.29 9.16Q184.41 9.02 184.73 8.93Q185.06 8.84 185.41 8.78Q185.77 8.72 186.06 8.71Q186.35 8.70 186.40 8.72L186.40 8.72Q186.42 8.74 186.28 9.21Q186.14 9.68 185.93 10.31Q185.72 10.95 185.48 11.61Q185.25 12.28 185.13 12.70L185.13 12.70Q185.02 13.13 184.85 13.65Q184.69 14.18 184.56 14.68Q184.43 15.19 184.38 15.63Q184.34 16.08 184.45 16.31L184.45 16.31Q184.57 16.59 184.71 16.70Q184.85 16.80 185.02 16.80L185.02 16.80Q185.48 16.80 186.20 16.29Q186.91 15.77 187.65 15.06Q188.39 14.34 189.02 13.61Q189.66 12.87 189.96 12.42L189.96 12.42Q190.15 12.19 190.35 12.12Q190.55 12.05 190.68 12.14Q190.80 12.23 190.82 12.45Q190.83 12.66 190.66 12.94L190.66 12.94Q190.29 13.59 189.56 14.50Q188.84 15.40 188.02 16.23Q187.20 17.06 186.41 17.65Q185.63 18.23 185.13 18.26L185.13 18.26Q184.73 18.28 184.35 18.13Q183.96 17.98 183.64 17.71Q183.33 17.44 183.12 17.07Q182.91 16.71 182.88 16.31L182.88 16.31Q182.81 15.73 182.88 14.71Q182.95 13.69 183.14 12.62Q183.33 11.55 183.62 10.59Q183.91 9.63 184.29 9.16Z" transform="translate(0, 52)"></path></svg>