<?xml version="1.0" standalone="no"?>
<svg xmlns="http://www.w3.org/2000/svg" viewBox="0 0 140 69" width="140" height="69"><g fill="#c88400" color="#c88400" transform="translate(47.732 0) scale(0.9166667) "><svg width="48.0" height="48.0" x="0.0" y="0.0" viewBox="0 0 48 48"><path fill="currentColor" fill-rule="evenodd" d="M34.473 43.811c1.217-4.516 4.822-8.12 9.338-9.335a22.573 22.573 0 0 1-9.338 9.335M4.19 34.473c4.514 1.217 8.118 4.821 9.333 9.336a22.572 22.572 0 0 1-9.333-9.336M13.526 4.19c-1.217 4.513-4.82 8.117-9.335 9.333a22.567 22.567 0 0 1 9.335-9.333m30.286 9.337c-4.516-1.216-8.12-4.822-9.336-9.337a22.567 22.567 0 0 1 9.336 9.337m2.585 11.285c-.023.625-.07 1.243-.144 1.855-10.523.49-19.098 9.064-19.59 19.586-.61.073-1.227.121-1.851.144.419-11.716 9.87-21.166 21.585-21.585m-44.65 1.851c-.072-.61-.12-1.227-.143-1.85 11.716.42 21.164 9.868 21.584 21.584a22.362 22.362 0 0 1-1.855-.144c-.49-10.523-9.063-19.097-19.586-19.59m.623 3.211a22.09 22.09 0 0 1-.471-2.15c9.824.562 17.814 8.551 18.374 18.378-.73-.123-1.447-.28-2.15-.472A17.356 17.356 0 0 0 2.37 29.873m.328 1.095A16.3 16.3 0 0 1 17.027 45.3a22.307 22.307 0 0 1-2.283-.892C13.622 38.836 9.16 34.375 3.59 33.252a22.28 22.28 0 0 1-.892-2.284m-1.094-7.78c.023-.625.071-1.243.144-1.855 10.523-.49 19.097-9.065 19.59-19.587.61-.072 1.226-.12 1.85-.143-.42 11.715-9.869 21.164-21.584 21.585m39.492.811c-8.33 2.196-14.9 8.767-17.097 17.097-2.195-8.33-8.766-14.9-17.096-17.097 8.33-2.196 14.901-8.766 17.096-17.097 2.197 8.33 8.767 14.901 17.097 17.097m5.158-2.663c.073.61.12 1.228.143 1.852-11.716-.42-21.166-9.869-21.585-21.585.625.022 1.242.07 1.854.143.49 10.524 9.064 19.099 19.588 19.59m-.622-3.21c.191.704.348 1.42.471 2.15-9.826-.561-17.817-8.552-18.376-18.378.728.123 1.446.28 2.15.471.754 8.388 7.368 15 15.755 15.756m-.328-1.094A16.3 16.3 0 0 1 30.972 2.698c.78.257 1.542.555 2.283.892 1.12 5.574 5.583 10.035 11.156 11.157.338.741.636 1.503.893 2.284M2.37 18.122c8.386-.754 15-7.367 15.755-15.754.704-.191 1.42-.348 2.15-.47-.561 9.824-8.551 17.814-18.377 18.375.123-.73.28-1.447.472-2.15m1.22-3.38c5.573-1.12 10.034-5.582 11.156-11.153a22.38 22.38 0 0 1 2.284-.892A16.3 16.3 0 0 1 2.699 17.027c.257-.781.555-1.543.893-2.283M45.63 29.877A17.357 17.357 0 0 0 29.873 45.63c-.704.192-1.42.349-2.15.472.562-9.827 8.552-17.816 18.379-18.376-.123.73-.28 1.447-.472 2.15m-1.22 3.378c-5.573 1.122-10.036 5.584-11.158 11.156-.741.337-1.502.635-2.283.892a16.3 16.3 0 0 1 14.333-14.33c-.257.78-.555 1.541-.892 2.282M24 0h-.001C10.77.001.009 10.759.002 23.986L0 23.999l.002.014C.009 37.24 10.77 47.998 23.999 47.999h.002c13.233 0 23.999-10.766 23.999-24C48 10.766 37.234 0 24 0"></path></svg></g><path fill="#fff" fill-rule="nonzero" d="M0.05 14.64L0.89 14.57Q1.10 11.26 1.10 7.58Q1.10 3.91 0.89 1.94L0.89 1.94L0.07 1.87Q0.02 1.49 0.02 1.21Q0.02 0.94 0.10 0.53L0.10 0.53Q0.94 0.55 2.04 0.55Q3.14 0.55 3.96 0.53L3.96 0.53Q4.03 0.89 4.03 1.16Q4.03 1.44 3.98 1.87L3.98 1.87L3.07 1.94Q2.90 4.20 2.90 8.15Q2.90 12.10 3.07 14.14L3.07 14.14Q3.82 14.21 5.24 14.21Q6.67 14.21 7.42 14.09L7.42 14.09L7.49 12.46Q7.90 12.38 8.22 12.38Q8.54 12.38 8.83 12.41L8.83 12.41Q8.90 14.23 9.05 15.96L9.05 15.96L8.93 16.08Q7.80 15.96 4.34 15.96Q0.89 15.96 0.07 15.98L0.07 15.98Q0 15.62 0 15.35Q0 15.07 0.05 14.64L0.05 14.64ZM14.30 10.63L14.30 10.63Q13.13 10.63 12.12 10.51L12.12 10.51Q12.17 14.59 14.83 14.59L14.83 14.59Q16.18 14.59 17.81 13.10L17.81 13.10Q18.50 13.82 18.70 15L18.70 15Q16.73 16.32 14.52 16.32Q12.31 16.32 11.23 14.80Q10.15 13.27 10.15 10.32Q10.15 7.37 11.36 5.93Q12.58 4.49 14.81 4.49L14.81 4.49Q16.46 4.49 17.54 5.50Q18.62 6.50 18.64 7.97Q18.65 9.43 18.38 10.06L18.38 10.06Q16.58 10.63 14.30 10.63ZM14.64 5.83L14.64 5.83Q12.41 5.83 12.14 9.12L12.14 9.12Q13.22 9.24 14.52 9.24Q15.82 9.24 16.54 9L16.54 9Q16.63 8.40 16.63 8.11L16.63 8.11Q16.63 7.06 16.09 6.44Q15.55 5.83 14.64 5.83ZM31.39 8.02L31.39 8.02Q32.09 8.71 33.06 8.71Q34.03 8.71 34.63 8.11L34.63 8.11Q35.59 7.13 35.59 5.18L35.59 5.18Q35.59 1.61 32.42 1.61L32.42 1.61Q31.42 1.61 30.17 2.14L30.17 2.14Q30 4.03 30 8.04Q30 12.05 30.22 14.57L30.22 14.57L31.58 14.66Q31.63 15.05 31.63 15.36Q31.63 15.67 31.56 15.98L31.56 15.98Q30.70 15.96 29.32 15.96Q27.94 15.96 27.19 15.98L27.19 15.98Q27.12 15.62 27.12 15.35Q27.12 15.07 27.17 14.64L27.17 14.64L28.01 14.57Q28.20 12 28.20 8.00Q28.20 4.01 27.96 2.06L27.96 2.06L27.05 1.99Q26.98 1.66 26.98 1.25Q26.98 0.84 27 0.65L27 0.65Q28.01 0.60 29.76 0.43L29.76 0.43Q30.98 0.24 32.45 0.24L32.45 0.24Q35.28 0.24 36.48 1.52Q37.68 2.81 37.68 5.12Q37.68 7.44 36.47 8.88Q35.26 10.32 32.78 10.32L32.78 10.32Q31.82 10.32 30.89 9.96L30.89 9.96Q30.89 9.31 31.06 8.76Q31.22 8.21 31.39 8.02ZM43.39 10.63L43.39 10.63Q42.22 10.63 41.21 10.51L41.21 10.51Q41.26 14.59 43.92 14.59L43.92 14.59Q45.26 14.59 46.90 13.10L46.90 13.10Q47.59 13.82 47.78 15L47.78 15Q45.82 16.32 43.61 16.32Q41.40 16.32 40.32 14.80Q39.24 13.27 39.24 10.32Q39.24 7.37 40.45 5.93Q41.66 4.49 43.90 4.49L43.90 4.49Q45.55 4.49 46.63 5.50Q47.71 6.50 47.72 7.97Q47.74 9.43 47.47 10.06L47.47 10.06Q45.67 10.63 43.39 10.63ZM43.73 5.83L43.73 5.83Q41.50 5.83 41.23 9.12L41.23 9.12Q42.31 9.24 43.61 9.24Q44.90 9.24 45.62 9L45.62 9Q45.72 8.40 45.72 8.11L45.72 8.11Q45.72 7.06 45.18 6.44Q44.64 5.83 43.73 5.83ZM50.78 12.07L50.78 12.07Q50.78 12.07 50.83 6.72L50.83 6.72Q50.83 6.36 50.81 6.17L50.81 6.17Q49.80 6.17 49.37 6.19L49.37 6.19Q49.22 5.81 49.22 5.44Q49.22 5.06 49.27 4.87L49.27 4.87L50.74 4.87L50.62 3.10Q51.22 2.90 51.88 2.90Q52.54 2.90 52.97 3L52.97 3L52.75 4.85Q54.07 4.82 55.42 4.70L55.42 4.70Q55.56 5.02 55.56 5.39Q55.56 5.76 55.46 6.29L55.46 6.29Q54.58 6.24 52.66 6.19L52.66 6.19Q52.61 6.67 52.61 7.61L52.61 7.61L52.61 12.48Q52.61 13.10 52.67 13.50Q52.73 13.90 52.98 14.22Q53.23 14.54 53.71 14.54L53.71 14.54Q54.77 14.54 55.73 13.80L55.73 13.80Q56.23 14.52 56.23 15.74L56.23 15.74Q54.91 16.32 53.94 16.32Q52.97 16.32 52.39 16.07Q51.82 15.82 51.50 15.47Q51.19 15.12 51.02 14.50L51.02 14.50Q50.78 13.61 50.78 12.07ZM57.70 14.64L58.54 14.57Q58.75 12.22 58.75 10.26Q58.75 8.30 58.56 6.19L58.56 6.19L57.67 6.12Q57.60 5.71 57.60 5.34Q57.60 4.97 57.62 4.78L57.62 4.78Q59.02 4.73 60.60 4.56L60.60 4.56L60.72 4.68Q60.50 6.10 60.50 9.43Q60.50 12.77 60.72 14.57L60.72 14.57L61.61 14.64Q61.66 15.02 61.66 15.30Q61.66 15.58 61.58 15.98L61.58 15.98Q60.74 15.96 59.64 15.96Q58.54 15.96 57.72 15.98L57.72 15.98Q57.65 15.62 57.65 15.24Q57.65 14.86 57.70 14.64L57.70 14.64ZM60.96 1.25L60.96 1.25Q60.96 2.74 59.42 2.74L59.42 2.74Q58.22 2.74 58.22 1.51L58.22 1.51Q58.22 0 59.76 0L59.76 0Q60.96 0 60.96 1.25ZM64.46 12.07L64.46 12.07Q64.46 12.07 64.51 6.72L64.51 6.72Q64.51 6.36 64.49 6.17L64.49 6.17Q63.48 6.17 63.05 6.19L63.05 6.19Q62.90 5.81 62.90 5.44Q62.90 5.06 62.95 4.87L62.95 4.87L64.42 4.87L64.30 3.10Q64.90 2.90 65.56 2.90Q66.22 2.90 66.65 3L66.65 3L66.43 4.85Q67.75 4.82 69.10 4.70L69.10 4.70Q69.24 5.02 69.24 5.39Q69.24 5.76 69.14 6.29L69.14 6.29Q68.26 6.24 66.34 6.19L66.34 6.19Q66.29 6.67 66.29 7.61L66.29 7.61L66.29 12.48Q66.29 13.10 66.35 13.50Q66.41 13.90 66.66 14.22Q66.91 14.54 67.39 14.54L67.39 14.54Q68.45 14.54 69.41 13.80L69.41 13.80Q69.91 14.52 69.91 15.74L69.91 15.74Q68.59 16.32 67.62 16.32Q66.65 16.32 66.07 16.07Q65.50 15.82 65.18 15.47Q64.87 15.12 64.70 14.50L64.70 14.50Q64.46 13.61 64.46 12.07ZM77.18 14.57L78.14 14.50Q78.36 12.05 78.36 8.00Q78.36 3.96 78.12 2.06L78.12 2.06L77.18 1.99Q77.11 1.70 77.11 1.25Q77.11 0.79 77.14 0.65L77.14 0.65Q78.67 0.62 79.87 0.43Q81.07 0.24 82.42 0.24L82.42 0.24Q84.84 0.24 86.10 1.36Q87.36 2.47 87.36 4.73Q87.36 6.98 85.82 8.14L85.82 8.14Q88.39 9.17 88.39 11.81L88.39 11.81Q88.39 14.04 87 15.18Q85.61 16.32 82.90 16.32L82.90 16.32Q81.38 16.32 80.09 16.13L80.09 16.13Q77.81 15.96 77.14 15.91L77.14 15.91Q77.11 15.77 77.11 15.34Q77.11 14.90 77.18 14.57L77.18 14.57ZM81.55 7.03L81.55 7.03Q82.08 7.39 83.10 7.39Q84.12 7.39 84.70 6.71Q85.27 6.02 85.27 4.64Q85.27 3.26 84.50 2.44Q83.74 1.61 82.32 1.61L82.32 1.61Q81.43 1.61 80.35 2.04L80.35 2.04Q80.16 4.03 80.16 7.85Q80.16 11.66 80.35 14.11L80.35 14.11Q81.77 14.66 82.92 14.66L82.92 14.66Q86.30 14.66 86.30 11.81L86.30 11.81Q86.30 9.41 84.07 8.88L84.07 8.88Q83.35 9 82.67 9Q81.98 9 81.05 8.64L81.05 8.64Q81.05 7.54 81.55 7.03ZM90.70 14.64L91.54 14.57Q91.75 12.22 91.75 10.26Q91.75 8.30 91.56 6.19L91.56 6.19L90.67 6.12Q90.60 5.71 90.60 5.34Q90.60 4.97 90.62 4.78L90.62 4.78Q92.02 4.73 93.60 4.56L93.60 4.56L93.72 4.68Q93.50 6.10 93.50 9.43Q93.50 12.77 93.72 14.57L93.72 14.57L94.61 14.64Q94.66 15.02 94.66 15.30Q94.66 15.58 94.58 15.98L94.58 15.98Q93.74 15.96 92.64 15.96Q91.54 15.96 90.72 15.98L90.72 15.98Q90.65 15.62 90.65 15.24Q90.65 14.86 90.70 14.64L90.70 14.64ZM93.96 1.25L93.96 1.25Q93.96 2.74 92.42 2.74L92.42 2.74Q91.22 2.74 91.22 1.51L91.22 1.51Q91.22 0 92.76 0L92.76 0Q93.96 0 93.96 1.25ZM100.49 4.49Q102.17 4.49 103.16 5.28Q104.16 6.07 104.16 7.33Q104.16 8.59 103.03 8.59L103.03 8.59Q102.36 8.59 101.99 8.17Q101.62 7.75 101.62 7.18Q101.62 6.60 101.81 6.22L101.81 6.22Q101.23 5.76 100.44 5.76Q99.65 5.76 99.13 6.14Q98.62 6.53 98.62 7.27Q98.62 8.02 99.20 8.57Q99.79 9.12 100.63 9.47Q101.47 9.82 102.31 10.19Q103.15 10.56 103.74 11.24Q104.33 11.93 104.33 12.94L104.33 12.94Q104.33 14.50 103.28 15.41Q102.24 16.32 100.44 16.32Q98.64 16.32 97.50 15.55Q96.36 14.78 96.36 13.54L96.36 13.54L96.36 13.44Q96.36 12.14 97.49 12.14L97.49 12.14Q98.16 12.14 98.53 12.56Q98.90 12.98 98.90 13.54Q98.90 14.09 98.78 14.40L98.78 14.40Q99.26 14.71 100.31 14.71Q101.35 14.71 101.89 14.35Q102.43 13.99 102.43 13.36Q102.43 12.72 101.84 12.22Q101.26 11.71 100.42 11.36Q99.58 11.02 98.74 10.62Q97.90 10.22 97.31 9.48Q96.72 8.74 96.72 7.70L96.72 7.70Q96.72 6.22 97.76 5.35Q98.81 4.49 100.49 4.49ZM107.14 12.07L107.14 12.07Q107.14 12.07 107.18 6.72L107.18 6.72Q107.18 6.36 107.16 6.17L107.16 6.17Q106.15 6.17 105.72 6.19L105.72 6.19Q105.58 5.81 105.58 5.44Q105.58 5.06 105.62 4.87L105.62 4.87L107.09 4.87L106.97 3.10Q107.57 2.90 108.23 2.90Q108.89 2.90 109.32 3L109.32 3L109.10 4.85Q110.42 4.82 111.77 4.70L111.77 4.70Q111.91 5.02 111.91 5.39Q111.91 5.76 111.82 6.29L111.82 6.29Q110.93 6.24 109.01 6.19L109.01 6.19Q108.96 6.67 108.96 7.61L108.96 7.61L108.96 12.48Q108.96 13.10 109.02 13.50Q109.08 13.90 109.33 14.22Q109.58 14.54 110.06 14.54L110.06 14.54Q111.12 14.54 112.08 13.80L112.08 13.80Q112.58 14.52 112.58 15.74L112.58 15.74Q111.26 16.32 110.29 16.32Q109.32 16.32 108.74 16.07Q108.17 15.82 107.86 15.47Q107.54 15.12 107.38 14.50L107.38 14.50Q107.14 13.61 107.14 12.07ZM113.57 14.64L114.41 14.57Q114.62 12.17 114.62 10.16Q114.62 8.16 114.43 6.19L114.43 6.19L113.54 6.12Q113.47 5.74 113.47 5.33Q113.47 4.92 113.50 4.78L113.50 4.78Q114.72 4.75 116.47 4.56L116.47 4.56L116.59 4.68Q116.57 4.82 116.45 6.10L116.45 6.10Q117.00 5.40 117.73 4.94Q118.46 4.49 119.17 4.49Q119.88 4.49 120.41 4.99Q120.94 5.50 120.94 6.31L120.94 6.31Q120.94 7.66 119.81 7.66L119.81 7.66Q119.16 7.66 118.78 7.24Q118.39 6.82 118.39 6.12L118.39 6.12Q118.34 6.10 118.22 6.10L118.22 6.10Q117.34 6.10 116.40 7.44L116.40 7.44Q116.38 8.11 116.38 10.45Q116.38 12.79 116.59 14.57L116.59 14.57L117.48 14.64Q117.53 15.17 117.53 15.37Q117.53 15.58 117.46 15.98L117.46 15.98Q116.78 15.96 115.49 15.96Q114.19 15.96 113.59 15.98L113.59 15.98Q113.52 15.62 113.52 15.30Q113.52 14.98 113.57 14.64L113.57 14.64ZM122.11 10.27Q122.11 4.49 126.62 4.49Q131.14 4.49 131.14 10.27L131.14 10.27Q131.14 12.94 130.30 14.50L130.30 14.50Q129.34 16.32 126.62 16.32Q123.91 16.32 122.95 14.50L122.95 14.50Q122.11 12.94 122.11 10.27L122.11 10.27ZM124.08 10.21Q124.08 14.59 126.62 14.59Q129.17 14.59 129.17 10.21Q129.17 5.83 126.62 5.83Q124.08 5.83 124.08 10.21ZM134.02 12.07L134.02 12.07Q134.02 12.07 134.06 6.72L134.06 6.72Q134.06 6.36 134.04 6.17L134.04 6.17Q133.03 6.17 132.60 6.19L132.60 6.19Q132.46 5.81 132.46 5.44Q132.46 5.06 132.50 4.87L132.50 4.87L133.97 4.87L133.85 3.10Q134.45 2.90 135.11 2.90Q135.77 2.90 136.20 3L136.20 3L135.98 4.85Q137.30 4.82 138.65 4.70L138.65 4.70Q138.79 5.02 138.79 5.39Q138.79 5.76 138.70 6.29L138.70 6.29Q137.81 6.24 135.89 6.19L135.89 6.19Q135.84 6.67 135.84 7.61L135.84 7.61L135.84 12.48Q135.84 13.10 135.90 13.50Q135.96 13.90 136.21 14.22Q136.46 14.54 136.94 14.54L136.94 14.54Q138.00 14.54 138.96 13.80L138.96 13.80Q139.46 14.52 139.46 15.74L139.46 15.74Q138.14 16.32 137.17 16.32Q136.20 16.32 135.62 16.07Q135.05 15.82 134.74 15.47Q134.42 15.12 134.26 14.50L134.26 14.50Q134.02 13.61 134.02 12.07Z" transform="translate(0, 52)"></path></svg>